<svg xmlns="http://www.w3.org/2000/svg" viewBox="0 0 512 512" width="100%" height="100%">
  <defs>
    <linearGradient id="bgGrad" x1="0%" y1="0%" x2="100%" y2="100%">
      <stop offset="0%" stop-color="#1e1b4b" />
      <stop offset="100%" stop-color="#311042" />
    </linearGradient>
    
    <linearGradient id="glowGrad" x1="0%" y1="0%" x2="100%" y2="100%">
      <stop offset="0%" stop-color="#00f2fe" />
      <stop offset="100%" stop-color="#4facfe" />
    </linearGradient>
    
    <linearGradient id="goldGrad" x1="0%" y1="0%" x2="100%" y2="100%">
      <stop offset="0%" stop-color="#f6d365" />
      <stop offset="100%" stop-color="#fda085" />
    </linearGradient>
  </defs>

  <rect width="462" height="462" x="25" y="25" rx="100" fill="url(#bgGrad)" stroke="#3b2d54" stroke-width="4" />

  <path d="M 25,128 L 487,128 M 25,256 L 487,256 M 25,384 L 487,384 M 128,25 L 128,487 M 256,25 L 256,487 M 384,25 L 384,487" 
        stroke="#ffffff" stroke-width="1" opacity="0.05" />

  <path d="M 90,160 L 90,110 L 140,110" fill="none" stroke="url(#glowGrad)" stroke-width="10" stroke-linecap="round" />
  <path d="M 422,160 L 422,110 L 372,110" fill="none" stroke="url(#glowGrad)" stroke-width="10" stroke-linecap="round" />
  <path d="M 90,352 L 90,402 L 140,402" fill="none" stroke="url(#glowGrad)" stroke-width="10" stroke-linecap="round" />
  <path d="M 422,352 L 422,402 L 372,402" fill="none" stroke="url(#glowGrad)" stroke-width="10" stroke-linecap="round" />
  
  <rect x="105" y="125" width="302" height="262" rx="10" fill="none" stroke="#00f2fe" stroke-width="2" stroke-dasharray="8,8" opacity="0.3"/>

  <circle cx="90" cy="110" r="7" fill="#00f2fe" />
  <circle cx="422" cy="110" r="7" fill="#00f2fe" />
  <circle cx="90" cy="402" r="7" fill="#00f2fe" />
  <circle cx="422" cy="402" r="7" fill="#00f2fe" />

  <g fill="none" stroke="url(#goldGrad)" stroke-width="26" stroke-linecap="round" stroke-linejoin="round">
    <path d="M 140,310 
             C 140,220 180,200 200,200 
             C 220,200 235,240 235,270 
             L 235,310 
             C 235,210 280,200 300,200 
             C 320,200 335,240 335,270 
             L 335,310
             M 335,240
             C 355,200 380,220 380,260
             L 380,310" />
  </g>
</svg>
